<svg width="161" height="46" viewBox="0 0 161 46" fill="none" xmlns="http://www.w3.org/2000/svg">
<path d="M6.21859 13.8689C6.21859 12.3961 6.64816 11.2096 7.48685 10.2687C8.346 9.32769 9.45061 8.87766 10.8007 8.87766C12.1917 8.87766 13.2963 9.34815 14.1555 10.2687C14.4418 10.596 14.6669 10.9642 14.8714 11.3528L20.8241 9.42997C20.6809 9.10268 20.5377 8.77538 20.3536 8.46854C19.474 6.93435 18.2262 5.72746 16.5693 4.86831C14.9123 4.00916 13.0099 3.57959 10.8212 3.57959C8.63238 3.57959 6.72998 4.00916 5.09351 4.86831C3.45704 5.72746 2.20923 6.93435 1.32963 8.489C0.429573 10.0232 0 11.8233 0 13.8689C0 14.6462 0.0613676 15.3826 0.184103 16.0986L6.23904 14.1553C6.23904 14.053 6.21859 13.9712 6.21859 13.8689Z" fill="#74CC20"/>
<path d="M23.6875 11.6599C23.6875 13.1327 23.258 14.3192 22.4193 15.2602C21.5601 16.2011 20.4555 16.6512 19.1054 16.6512C17.7144 16.6512 16.6098 16.1807 15.7506 15.2602C15.4643 14.9329 15.2392 14.5647 15.0347 14.176L9.08203 16.0988C9.22522 16.4261 9.36841 16.7534 9.55252 17.0603C10.4321 18.5945 11.7004 19.8014 13.3369 20.681C14.9938 21.5401 16.8962 21.9697 19.085 21.9697C21.2737 21.9697 23.1761 21.5401 24.8126 20.681C26.4491 19.8218 27.6969 18.6149 28.5765 17.0603C29.4561 15.5261 29.8857 13.726 29.8857 11.6804C29.8857 10.9031 29.8243 10.1666 29.7015 9.45068L23.6466 11.394C23.6671 11.4758 23.6875 11.5576 23.6875 11.6599Z" fill="#74CC20"/>
<path d="M51.8761 4.68451C51.1192 4.41858 50.3828 4.27539 49.6464 4.27539C47.8054 4.27539 46.353 5.07317 45.2893 6.68918L44.9006 4.70496L40.3799 6.09596V20.906H45.5552V12.9896C45.5552 11.619 45.8825 10.5963 46.5166 9.90075C47.1508 9.20526 48.0304 8.83705 49.1145 8.83705C49.5441 8.83705 49.9737 8.89842 50.3623 9.04161C50.751 9.16434 51.1806 9.38936 51.6511 9.67574L53.8194 5.8914C53.2671 5.35955 52.6125 4.95043 51.8761 4.68451Z" fill="white"/>
<path d="M64.4773 4.21365C65.9092 4.45912 67.1366 5.0728 68.1594 6.03422C69.1822 6.99565 69.939 8.24346 70.4095 9.7981C70.5732 10.3095 70.6959 10.9436 70.8391 11.7005L59.4247 15.2598C59.8134 16.0167 60.4475 16.5281 61.3066 16.794C62.1658 17.0599 63.1681 17.019 64.2727 16.6917C65.0501 16.4463 65.766 16.0985 66.4206 15.6485C67.0752 15.1985 67.6071 14.6666 67.9957 14.0938L71.4323 16.0576C70.7982 17.1418 69.9595 18.1032 68.8958 18.9214C67.8321 19.7397 66.6047 20.3533 65.2546 20.7829C63.4545 21.3352 61.7771 21.4989 60.2634 21.2534C58.7292 21.0079 57.42 20.3738 56.3359 19.3919C55.2517 18.3896 54.4335 17.0804 53.9221 15.4235C53.4311 13.8279 53.3289 12.3142 53.6561 10.8414C53.9834 9.38899 54.6585 8.12072 55.7017 7.05702C56.745 5.99331 58.0951 5.19553 59.752 4.68414C61.4908 4.11137 63.0454 3.96818 64.4773 4.21365ZM58.9747 9.98221C58.5042 10.6777 58.3815 11.4959 58.586 12.4165L65.4387 10.289C65.091 9.40944 64.5387 8.81622 63.8023 8.48893C63.0454 8.16163 62.1658 8.16163 61.1635 8.48893C60.1611 8.79577 59.4452 9.28671 58.9747 9.98221Z" fill="white"/>
<path d="M73.1504 1.65693V20.9059H78.3257V0L73.1504 1.65693Z" fill="white"/>
<path d="M98.6175 4.62314V20.8856H94.1377L93.8104 18.9423C92.4194 20.456 90.6192 21.2129 88.41 21.2129C86.8963 21.2129 85.5462 20.8651 84.3802 20.1491C83.2142 19.4332 82.2937 18.4309 81.6391 17.1421C80.9845 15.8534 80.6572 14.401 80.6572 12.7441C80.6572 11.1077 80.9845 9.63483 81.6391 8.34611C82.2937 7.05739 83.2142 6.05505 84.3802 5.3391C85.5462 4.62314 86.8963 4.27539 88.41 4.27539C89.5146 4.27539 90.517 4.45949 91.4375 4.84815C92.358 5.23682 93.1558 5.78913 93.8104 6.50508L94.1377 4.60268H98.6175V4.62314ZM92.4194 15.7511C93.1353 14.9943 93.5035 13.9919 93.5035 12.7646C93.5035 11.5372 93.1353 10.5349 92.4194 9.77802C91.7034 9.02115 90.7624 8.63249 89.6169 8.63249C88.4714 8.63249 87.5509 9.02115 86.8349 9.77802C86.1189 10.5553 85.7712 11.5372 85.7712 12.7441C85.7712 13.951 86.1189 14.9329 86.8349 15.7102C87.5509 16.4875 88.4714 16.8558 89.6169 16.8558C90.7624 16.8762 91.6829 16.508 92.4194 15.7511Z" fill="white"/>
<path d="M110.4 16.8558C109.827 16.8558 109.377 16.6921 109.05 16.3853C108.723 16.058 108.559 15.5875 108.559 14.9125V8.75527H112.609V4.62318H108.559V0.0615234L103.425 1.65708V4.62318H100.643V8.73481H103.404V14.892C103.404 17.1013 103.916 18.7173 104.959 19.7196C105.982 20.722 107.393 21.2129 109.173 21.2129C110.768 21.2129 112.221 20.8856 113.489 20.2515L112.262 16.3649C111.668 16.6921 111.034 16.8558 110.4 16.8558Z" fill="white"/>
<path d="M118.317 20.1901C116.966 19.4741 115.923 18.4922 115.207 17.2035C114.491 15.9352 114.123 14.442 114.123 12.7646C114.123 11.0667 114.491 9.59392 115.207 8.32565C115.923 7.05739 116.966 6.05505 118.317 5.3391C119.667 4.62314 121.242 4.27539 123.042 4.27539C124.842 4.27539 126.417 4.62314 127.788 5.3391C129.158 6.05505 130.201 7.03693 130.917 8.32565C131.633 9.59392 132.001 11.0872 132.001 12.7646C132.001 14.4624 131.633 15.9352 130.917 17.2035C130.201 18.4718 129.158 19.4741 127.788 20.1901C126.417 20.906 124.842 21.2538 123.042 21.2538C121.242 21.2538 119.667 20.906 118.317 20.1901ZM125.824 15.7307C126.519 14.9534 126.888 13.9715 126.888 12.7646C126.888 11.5577 126.54 10.5758 125.824 9.79848C125.128 9.02115 124.208 8.65295 123.062 8.65295C121.937 8.65295 121.037 9.04161 120.321 9.79848C119.626 10.5758 119.257 11.5577 119.257 12.7646C119.257 13.9715 119.605 14.9534 120.321 15.7307C121.017 16.508 121.937 16.8762 123.062 16.8762C124.187 16.8762 125.108 16.4875 125.824 15.7307Z" fill="white"/>
<path d="M137.586 20.1901C136.236 19.4741 135.193 18.4922 134.477 17.2035C133.761 15.9352 133.393 14.442 133.393 12.7646C133.393 11.0667 133.761 9.59392 134.477 8.32565C135.193 7.05739 136.236 6.05505 137.586 5.3391C138.936 4.62314 140.511 4.27539 142.311 4.27539C144.111 4.27539 145.687 4.62314 147.057 5.3391C148.428 6.05505 149.471 7.03693 150.187 8.32565C150.903 9.59392 151.271 11.0872 151.271 12.7646C151.271 14.4624 150.903 15.9352 150.187 17.2035C149.471 18.4718 148.428 19.4741 147.057 20.1901C145.687 20.906 144.111 21.2538 142.311 21.2538C140.511 21.2538 138.936 20.906 137.586 20.1901ZM145.073 15.7307C145.768 14.9534 146.137 13.9715 146.137 12.7646C146.137 11.5577 145.789 10.5758 145.073 9.79848C144.377 9.02115 143.457 8.65295 142.311 8.65295C141.186 8.65295 140.286 9.04161 139.57 9.79848C138.875 10.5758 138.507 11.5577 138.507 12.7646C138.507 13.9715 138.854 14.9534 139.57 15.7307C140.266 16.508 141.186 16.8762 142.311 16.8762C143.457 16.8762 144.377 16.4875 145.073 15.7307Z" fill="white"/>
<path d="M159.165 0.698149C159.679 0.994312 160.089 1.40371 160.376 1.92635C160.672 2.44899 160.812 3.03261 160.812 3.68591C160.812 4.33921 160.664 4.93153 160.376 5.45417C160.08 5.98552 159.679 6.39492 159.165 6.69109C158.651 6.98725 158.068 7.13533 157.415 7.13533C156.761 7.13533 156.16 6.98725 155.646 6.69109C155.132 6.39492 154.723 5.97681 154.436 5.45417C154.139 4.92282 154 4.33921 154 3.68591C154 3.03261 154.148 2.44899 154.436 1.92635C154.732 1.40371 155.132 0.994312 155.646 0.698149C156.16 0.401987 156.753 0.253906 157.415 0.253906C158.077 0.253906 158.651 0.401987 159.165 0.698149ZM159.374 5.69807C159.871 5.18414 160.124 4.51342 160.124 3.69462C160.124 2.87582 159.871 2.20509 159.374 1.69117C158.878 1.17724 158.216 0.915916 157.415 0.915916C156.613 0.915916 155.942 1.17724 155.455 1.69117C154.967 2.20509 154.723 2.87582 154.723 3.69462C154.723 4.51342 154.967 5.18414 155.455 5.69807C155.942 6.212 156.596 6.47332 157.415 6.47332C158.233 6.47332 158.878 6.212 159.374 5.69807ZM158.721 3.66848C158.582 3.85141 158.39 3.98207 158.138 4.06046L159.078 5.46288L158.016 5.4803L157.206 4.13015H156.918V5.4803H156.038V1.85667H157.658C158.042 1.85667 158.347 1.9612 158.573 2.16154C158.8 2.36189 158.922 2.64063 158.922 2.98905C158.922 3.33748 158.852 3.48556 158.712 3.66848H158.721ZM156.927 3.40717H157.615C157.737 3.40717 157.841 3.37232 157.928 3.30264C158.016 3.23295 158.059 3.13713 158.059 3.01519C158.059 2.89324 158.016 2.79742 157.928 2.73645C157.841 2.67547 157.737 2.64063 157.615 2.64063H156.927V3.39846V3.40717Z" fill="white"/>
<path d="M1.28857 45.5809C0.887335 45.3986 0.583369 45.1554 0.352355 44.8392C0.121341 44.5231 0.0119145 44.1584 -0.000244141 43.745H1.05756C1.09403 44.0976 1.23993 44.4015 1.49527 44.6447C1.7506 44.8879 2.12751 45.0095 2.62602 45.0095C3.12452 45.0095 3.47712 44.8879 3.74461 44.6569C4.0121 44.4259 4.15801 44.1097 4.15801 43.745C4.15801 43.3802 4.0729 43.2222 3.91483 43.0398C3.75677 42.8574 3.55007 42.7236 3.3069 42.6264C3.06373 42.5291 2.73545 42.4318 2.33421 42.3224C1.83571 42.1887 1.42231 42.0549 1.13051 41.9333C0.826541 41.7996 0.571211 41.5929 0.352355 41.3132C0.1335 41.0336 0.0240727 40.6567 0.0240727 40.1825C0.0240727 39.7083 0.133499 39.4043 0.340196 39.0761C0.546893 38.7599 0.850859 38.5046 1.22778 38.3344C1.61685 38.1642 2.05456 38.0669 2.54091 38.0669C3.25827 38.0669 3.84188 38.2493 4.29175 38.6019C4.74162 38.9545 5.00911 39.4287 5.05774 40.0244H3.96347C3.92699 39.7326 3.76893 39.4773 3.50144 39.2584C3.23395 39.0396 2.86919 38.9302 2.43148 38.9302C1.99377 38.9302 1.67765 39.0396 1.41016 39.2584C1.14267 39.4773 1.02108 39.7691 1.02108 40.1582C1.02108 40.5473 1.09403 40.6567 1.25209 40.8391C1.41016 41.0093 1.60469 41.143 1.83571 41.2403C2.06672 41.3376 2.38285 41.4348 2.8084 41.5564C3.3069 41.6902 3.72029 41.8361 4.02426 41.9698C4.32823 42.1036 4.59572 42.3103 4.81457 42.5899C5.03343 42.8696 5.14285 43.2465 5.14285 43.7328C5.14285 44.2192 5.04559 44.4502 4.85105 44.7785C4.65651 45.1067 4.3647 45.3742 3.97563 45.5809C3.58655 45.7876 3.13668 45.8849 2.61386 45.8849C2.09104 45.8849 1.66549 45.7998 1.26425 45.6174L1.28857 45.5809Z" fill="white"/>
<path d="M12.183 41.9702C11.7453 42.3958 11.0887 42.6025 10.2011 42.6025H8.72992V45.788H7.73291V38.1646H10.189C11.0522 38.1646 11.7088 38.3712 12.1586 38.7846C12.6085 39.198 12.8274 39.733 12.8274 40.3896C12.8274 41.0461 12.6085 41.5568 12.1708 41.9702H12.183ZM11.417 41.3987C11.6845 41.1556 11.806 40.8151 11.806 40.3653C11.806 39.429 11.2711 38.9549 10.189 38.9549H8.71776V41.7513H10.189C10.7482 41.7513 11.1495 41.6298 11.417 41.3866V41.3987Z" fill="white"/>
<path d="M16.6817 45.3499C16.098 45.0216 15.636 44.5596 15.2956 43.9638C14.9551 43.3681 14.7849 42.6993 14.7849 41.9577C14.7849 41.216 14.9551 40.5473 15.2956 39.9515C15.636 39.3557 16.098 38.8937 16.6817 38.5654C17.2653 38.2371 17.9097 38.0669 18.6149 38.0669C19.3201 38.0669 19.9766 38.2371 20.5603 38.5654C21.1439 38.8937 21.6059 39.3557 21.9342 39.9515C22.2746 40.5473 22.4327 41.216 22.4327 41.9698C22.4327 42.7236 22.2625 43.3924 21.9342 43.9881C21.5937 44.5839 21.1439 45.0459 20.5603 45.3742C19.9766 45.7025 19.3322 45.8727 18.6149 45.8727C17.8975 45.8727 17.2653 45.7025 16.6817 45.3742V45.3499ZM20.0618 44.6082C20.4873 44.3651 20.8277 44.0003 21.0709 43.5504C21.3141 43.0884 21.4357 42.5534 21.4357 41.9577C21.4357 41.3619 21.3141 40.8147 21.0709 40.3527C20.8277 39.9028 20.4873 39.5502 20.0739 39.2949C19.6484 39.0517 19.1742 38.918 18.627 38.918C18.0799 38.918 17.6057 39.0396 17.1802 39.2949C16.7546 39.5381 16.4263 39.8907 16.1832 40.3527C15.94 40.8147 15.8184 41.3376 15.8184 41.9577C15.8184 42.5777 15.94 43.1006 16.1832 43.5504C16.4263 44.0125 16.7668 44.3651 17.1923 44.6082C17.6179 44.8514 18.1042 44.9852 18.627 44.9852C19.1499 44.9852 19.6362 44.8636 20.0618 44.6082Z" fill="white"/>
<path d="M28.8764 45.7636L27.0647 42.651H25.861V45.7636H24.864V38.1401H27.3201C27.8915 38.1401 28.3779 38.2374 28.7791 38.4319C29.1803 38.6265 29.4721 38.894 29.6667 39.2344C29.8612 39.5749 29.9585 39.9518 29.9585 40.3895C29.9585 40.8272 29.8126 41.3743 29.5086 41.7756C29.2046 42.1768 28.7548 42.4443 28.1468 42.578L30.0679 45.7758H28.8764V45.7636ZM25.861 41.8607H27.3322C27.8672 41.8607 28.2806 41.7269 28.5481 41.4594C28.8156 41.192 28.9493 40.8394 28.9493 40.3895C28.9493 39.9396 28.8156 39.587 28.5481 39.3438C28.2806 39.1007 27.8794 38.9669 27.3322 38.9669H25.861V41.8607Z" fill="white"/>
<path d="M37.3024 38.1401V38.9548H35.2233V45.7758H34.2263V38.9548H32.135V38.1401H37.3024Z" fill="white"/>
<path d="M49.4979 45.7634L48.5009 44.7542C48.124 45.1433 47.7349 45.423 47.3094 45.6175C46.8838 45.7999 46.4096 45.8972 45.8747 45.8972C45.3397 45.8972 44.8898 45.7999 44.4764 45.6175C44.0752 45.423 43.7591 45.1555 43.5402 44.8029C43.3213 44.4503 43.2119 44.049 43.2119 43.5749C43.2119 43.1007 43.3578 42.5778 43.6618 42.1645C43.9658 41.7632 44.4156 41.4349 44.9992 41.2039C44.7682 40.9243 44.598 40.6689 44.5007 40.4379C44.4035 40.2069 44.3427 39.9516 44.3427 39.6719C44.3427 39.3923 44.4278 39.064 44.5858 38.7965C44.7561 38.5412 44.9871 38.3345 45.291 38.1886C45.595 38.0427 45.9476 37.9697 46.3488 37.9697C46.7501 37.9697 47.0905 38.0427 47.3823 38.2007C47.6741 38.3588 47.893 38.5655 48.0389 38.8451C48.1848 39.1126 48.2456 39.4288 48.2334 39.757H47.2364C47.2364 39.4531 47.1635 39.2221 46.9811 39.0518C46.8109 38.8816 46.5799 38.7965 46.3002 38.7965C46.0206 38.7965 45.7774 38.8816 45.595 39.0397C45.4126 39.1978 45.3275 39.4166 45.3275 39.6719C45.3275 39.9273 45.3883 40.0975 45.5099 40.3042C45.6315 40.5109 45.8382 40.7662 46.1178 41.058L48.3915 43.3438L48.586 43.0399L49.3277 41.7875H50.3977L49.4979 43.3438C49.3763 43.5627 49.2304 43.7937 49.0602 44.0369L50.7746 45.7512H49.4736H49.4979V45.7634ZM46.9325 44.8272C47.2486 44.6691 47.5525 44.4381 47.8322 44.1098L45.5828 41.8605C44.6466 42.2131 44.1846 42.7845 44.1846 43.5627C44.1846 44.3408 44.3427 44.353 44.6466 44.6327C44.9506 44.9123 45.364 45.0582 45.8503 45.0582C46.3367 45.0582 46.6042 44.9853 46.9203 44.8272H46.9325Z" fill="white"/>
<path d="M61.3403 44.0737H58.0088L57.4009 45.7759H56.3552L59.1152 38.189H60.2581L63.006 45.7759H61.9604L61.3524 44.0737H61.3403ZM61.0606 43.2591L59.6867 39.4048L58.3128 43.2591H61.0728H61.0606Z" fill="white"/>
<path d="M69.3161 45.7636L67.5044 42.651H66.3007V45.7636H65.3037V38.1401H67.7598C68.3312 38.1401 68.8176 38.2374 69.2188 38.4319C69.62 38.6265 69.9118 38.894 70.1064 39.2344C70.3009 39.5749 70.3982 39.9518 70.3982 40.3895C70.3982 40.8272 70.2523 41.3743 69.9483 41.7756C69.6443 42.1768 69.1945 42.4443 68.5865 42.578L70.5076 45.7758H69.3161V45.7636ZM66.3007 41.8607H67.7719C68.3069 41.8607 68.7203 41.7269 68.9878 41.4594C69.2553 41.192 69.389 40.8394 69.389 40.3895C69.389 39.9396 69.2553 39.587 68.9878 39.3438C68.7203 39.1007 68.319 38.9669 67.7719 38.9669H66.3007V41.8607Z" fill="white"/>
<path d="M77.7421 38.1401V38.9548H75.663V45.7758H74.666V38.9548H72.5747V38.1401H77.7421Z" fill="white"/>
<path d="M84.2107 39.9392C84.5511 39.3435 85.001 38.8814 85.5846 38.541C86.1682 38.2005 86.8126 38.0425 87.5178 38.0425C88.223 38.0425 89.0741 38.2492 89.6942 38.6504C90.3143 39.0516 90.7642 39.6231 91.056 40.3526H89.8644C89.6577 39.8906 89.3538 39.538 88.9525 39.2948C88.5513 39.0516 88.0771 38.9179 87.53 38.9179C86.9828 38.9179 86.5208 39.0395 86.0953 39.2948C85.6697 39.538 85.3414 39.8906 85.0982 40.3526C84.8551 40.8146 84.7335 41.3375 84.7335 41.9576C84.7335 42.5776 84.8551 43.0883 85.0982 43.5503C85.3414 44.0124 85.6697 44.3528 86.0953 44.6081C86.5208 44.8513 86.995 44.9851 87.53 44.9851C88.0649 44.9851 88.5635 44.8635 88.9525 44.6203C89.3538 44.3771 89.6577 44.0245 89.8644 43.5625H91.056C90.7763 44.292 90.3143 44.8513 89.6942 45.2525C89.0741 45.6538 88.3446 45.8483 87.5178 45.8483C86.691 45.8483 86.1682 45.6781 85.5846 45.3498C85.001 45.0215 84.5511 44.5595 84.2107 43.9637C83.8702 43.368 83.7122 42.6992 83.7122 41.9576C83.7122 41.2159 83.8824 40.5472 84.2107 39.9514V39.9392Z" fill="white"/>
<path d="M97.6456 45.7636L95.834 42.651H94.6303V45.7636H93.6333V38.1401H96.0893C96.6608 38.1401 97.1471 38.2374 97.5484 38.4319C97.9496 38.6265 98.2414 38.894 98.436 39.2344C98.6305 39.5749 98.7278 39.9518 98.7278 40.3895C98.7278 40.8272 98.5819 41.3743 98.2779 41.7756C97.9739 42.1768 97.5241 42.4443 96.9161 42.578L98.8372 45.7758H97.6456V45.7636ZM94.6181 41.8607H96.0893C96.6243 41.8607 97.0377 41.7269 97.3052 41.4594C97.5727 41.192 97.7064 40.8394 97.7064 40.3895C97.7064 39.9396 97.5727 39.587 97.3052 39.3438C97.0377 39.1007 96.6365 38.9669 96.0893 38.9669H94.6181V41.8607Z" fill="white"/>
<path d="M109.111 38.2007V45.7755H108.114V40.1339L105.598 45.7755H104.892L102.363 40.1217V45.7755H101.366V38.2007H102.436L105.233 44.4624L108.029 38.2007H109.111Z" fill="white"/>
<path d="M117.574 42.1889H115.239V44.5477H114.315V42.1889H111.993V41.3499H114.315V38.979H115.239V41.3499H117.574V42.1889Z" fill="white"/>
</svg>
